HIERARCHY
ROOT Hips
{
	OFFSET -0.179506 -22.333345 2.821913
	CHANNELS 6 Xposition Yposition Zposition Zrotation Yrotation Xrotation 
	JOINT LeftUpLeg
	{
		OFFSET 6.951974 -9.140623 -0.681533
		CHANNELS 3 Zrotation Yrotation Xrotation
		JOINT LeftLeg
		{
			OFFSET 3.427654 -37.519855 -0.449580
			CHANNELS 3 Zrotation Yrotation Xrotation
			JOINT LeftFoot
			{
				OFFSET -1.359570 -39.796059 -4.369333
				CHANNELS 3 Zrotation Yrotation Xrotation
				JOINT LeftToe
				{
					OFFSET 2.635814 -5.579078 11.928840
					CHANNELS 3 Zrotation Yrotation Xrotation
					End Site
					{
						OFFSET 0.000000 0.000000 0.000000
					}
				}
			}
		}
	}
	JOINT RightUpLeg
	{
		OFFSET -6.767048 -9.052170 -0.431982
		CHANNELS 3 Zrotation Yrotation Xrotation
		JOINT RightLeg
		{
			OFFSET -3.829005 -38.256897 -0.885003
			CHANNELS 3 Zrotation Yrotation Xrotation
			JOINT RightFoot
			{
				OFFSET 1.577377 -39.841461 -4.231180
				CHANNELS 3 Zrotation Yrotation Xrotation
				JOINT RightToe
				{
					OFFSET -2.537174 -4.814398 12.334795
					CHANNELS 3 Zrotation Yrotation Xrotation
					End Site
					{
						OFFSET 0.000000 0.000000 0.000000
					}
				}
			}
		}
	}
	JOINT Spine
	{
		OFFSET -0.253288 10.896323 -2.669631
		CHANNELS 3 Zrotation Yrotation Xrotation
		JOINT Spine1
		{
			OFFSET 0.548704 13.518043 0.109247
			CHANNELS 3 Zrotation Yrotation Xrotation
			JOINT Spine2
			{
				OFFSET 0.145701 5.292222 2.542457
				CHANNELS 3 Zrotation Yrotation Xrotation
				JOINT Neck
				{
					OFFSET -0.277840 21.387037 -4.285703
					CHANNELS 3 Zrotation Yrotation Xrotation
					JOINT Head
					{
						OFFSET 0.515184 6.496960 5.134897
						CHANNELS 3 Zrotation Yrotation Xrotation
						End Site
						{
							OFFSET 0.000000 0.000000 0.000000
						}
					}
				}
				JOINT LeftShoulder
				{
					OFFSET 7.884473 12.174932 -3.408961
					CHANNELS 3 Zrotation Yrotation Xrotation
					JOINT LeftArm
					{
						OFFSET 9.097692 3.046888 -0.886815
						CHANNELS 3 Zrotation Yrotation Xrotation
						JOINT LeftForeArm
						{
							OFFSET 25.961220 -1.277207 -2.745643
							CHANNELS 3 Zrotation Yrotation Xrotation
							JOINT LeftHand
							{
								OFFSET 24.923361 0.898606 -0.117091
								CHANNELS 3 Zrotation Yrotation Xrotation
								End Site
								{
									OFFSET 0.000000 0.000000 0.000000
								}
							}
						}
					}
				}
				JOINT RightShoulder
				{
					OFFSET -8.175920 11.883285 -3.861528
					CHANNELS 3 Zrotation Yrotation Xrotation
					JOINT RightArm
					{
						OFFSET -9.601238 3.255117 -0.914307
						CHANNELS 3 Zrotation Yrotation Xrotation
						JOINT RightForeArm
						{
							OFFSET -25.374195 -1.332924 -2.140099
							CHANNELS 3 Zrotation Yrotation Xrotation
							JOINT RightHand
							{
								OFFSET -25.529810 0.777228 -0.555919
								CHANNELS 3 Zrotation Yrotation Xrotation
								End Site
								{
									OFFSET 0.000000 0.000000 0.000000
								}
							}
						}
					}
				}
			}
		}
	}
}
MOTION
Frames: 7
Frame Time: 0.033333
-9.733003 -4.598077 99.357414 173.497804 1.159023 83.647584 3.212335 2.537409 11.656809 -4.531815 -3.944935 -6.001523 4.932207 8.205343 -5.634537 nan nan nan -5.854824 -2.797610 7.709852 3.893627 -0.287108 -2.547843 8.015708 -2.518957 0.076644 nan nan nan -1.166511 1.655412 7.745552 -2.311782 -1.917851 4.454983 -0.855378 -0.288522 0.643554 -9.789411 5.360871 -1.007369 -1.759038 -1.162304 -3.544410 -26.358337 -3.251686 6.328703 -54.426037 -7.125643 7.353719 10.935222 -17.603465 1.243475 -7.200909 -15.825101 -5.701493 27.095998 8.463895 7.582702 59.644366 6.028192 10.798373 -12.118014 18.257596 -9.040281 3.752351 10.411527 -12.833149 
-9.716561 -4.617235 99.374702 173.666311 1.143495 83.694874 3.204276 2.552841 11.614714 -4.521002 -3.965205 -6.039083 4.871753 8.134165 -5.631156 nan nan nan -5.884453 -2.967163 8.126347 3.861376 -0.435728 -3.289941 8.082060 -2.442613 0.327950 nan nan nan -1.077293 1.664687 7.726861 -2.299542 -1.923926 4.321928 -0.829414 -0.303679 0.666405 -9.806381 5.264622 -0.789516 -1.734213 -1.191065 -3.353760 -26.335372 -3.071206 6.343868 -54.591252 -7.236917 7.333687 11.022548 -17.606766 1.415547 -7.295002 -15.809663 -5.804957 27.011817 8.356759 7.630697 59.667267 5.982452 10.831347 -12.074492 18.281177 -8.854424 3.902902 10.395048 -12.887678 
-9.674874 -4.605200 99.372978 173.907490 1.063764 83.834415 3.171261 2.568257 11.460506 -4.558920 -4.019963 -6.035245 4.751734 8.048184 -5.623288 nan nan nan -5.951317 -3.175668 8.479812 3.809406 -0.592661 -4.055591 8.096660 -2.410260 0.562980 nan nan nan -1.140720 1.683824 7.347738 -2.218366 -2.016206 4.437743 -0.809128 -0.264200 0.723227 -9.802753 5.194568 -0.456015 -1.722416 -1.304941 -3.288917 -26.349605 -2.963732 6.273235 -54.685894 -7.342716 7.367855 11.110824 -17.512865 1.491911 -7.577536 -15.771764 -5.764756 27.029832 8.293800 7.718137 59.622664 5.981476 10.800048 -12.058003 18.251431 -8.837302 4.098300 10.407272 -12.886115 
-9.630612 -4.653459 99.345802 174.004859 0.924277 84.043961 3.053058 2.534275 11.146123 -4.599774 -4.027221 -5.941325 4.745372 8.036956 -5.606709 nan nan nan -6.072022 -3.203341 8.518486 3.797342 -0.666640 -4.521645 8.140404 -2.424697 0.724823 nan nan nan -1.219358 1.762523 6.988802 -2.189031 -1.992756 4.483593 -0.805133 -0.232478 0.822143 -9.805277 5.184126 -0.330728 -1.697922 -1.456167 -3.031873 -26.371659 -2.945339 6.167563 -54.701761 -7.413112 7.466819 11.201725 -17.454514 1.434172 -7.855578 -15.736420 -5.683781 27.162526 8.223209 7.820686 59.505341 6.001503 10.803058 -12.138079 18.333288 -8.905229 4.210322 10.452495 -12.956883 
-9.589003 -4.731897 99.320496 173.974502 0.805419 84.197629 2.942798 2.471410 10.853083 -4.638973 -3.953912 -5.801032 4.854497 8.066511 -5.632585 nan nan nan -6.174380 -3.135159 8.419567 3.814642 -0.663093 -4.713678 8.169231 -2.426321 0.795858 nan nan nan -1.235858 1.871636 6.882398 -2.213352 -1.882663 4.348742 -0.786316 -0.253714 0.920419 -9.760450 5.229763 -0.380846 -1.707010 -1.574642 -2.622335 -26.395057 -2.871093 6.107890 -54.721717 -7.467371 7.555657 11.249205 -17.523609 1.366758 -7.932909 -15.780482 -5.612052 27.286662 8.170759 7.888704 59.399659 6.033406 10.850530 -12.241005 18.362521 -8.971097 4.259096 10.455921 -12.939569 
-9.540403 -4.783785 99.325905 173.977541 0.780645 84.268691 2.927845 2.436558 10.675469 -4.647300 -3.949120 -5.663156 4.858110 8.092497 -5.676148 nan nan nan -6.173600 -3.174846 8.405652 3.825330 -0.661848 -4.861698 8.174783 -2.384710 0.856692 nan nan nan -1.221199 1.944173 6.833691 -2.169770 -1.818346 4.296131 -0.765832 -0.222055 0.908270 -9.678650 5.224274 -0.264651 -1.702649 -1.660142 -2.484345 -26.469811 -2.741547 6.046310 -54.714670 -7.509926 7.635911 11.217898 -17.608362 1.286727 -7.934286 -15.910198 -5.557536 27.333463 8.097510 7.859188 59.326679 6.035621 10.863574 -12.187265 18.215333 -9.036331 4.259426 10.449879 -12.789294 
-9.493700 -4.819912 99.323112 174.019310 0.703425 84.418430 2.837315 2.353450 10.429676 -4.648159 -3.957878 -5.541778 4.775639 8.170331 -5.687713 nan nan nan -6.262120 -3.195487 8.293265 3.913230 -0.707765 -4.955198 8.106275 -2.415971 0.901866 nan nan nan -1.287666 2.026745 6.612867 -2.121286 -1.789758 4.369411 -0.742759 -0.176838 0.848552 -9.572230 5.166318 -0.026738 -1.692039 -1.683728 -2.495234 -26.514255 -2.599852 5.972884 -54.714247 -7.560165 7.670558 11.181121 -17.679263 1.229756 -8.033311 -15.954270 -5.454352 27.387998 7.972124 7.783295 59.247416 6.045203 10.855640 -12.076801 18.015386 -9.035271 4.243475 10.502409 -12.573171 
